<mxfile host="app.diagrams.net" agent="Mozilla/5.0 (Windows NT 10.0; Win64; x64) AppleWebKit/537.36 (KHTML, like Gecko) Chrome/132.0.0.0 Safari/537.36 OPR/117.0.0.0" scale="1" border="0" version="26.0.16">
  <diagram id="C5RBs43oDa-KdzZeNtuy" name="Page-1">
    <mxGraphModel dx="1800" dy="830" grid="1" gridSize="10" guides="1" tooltips="1" connect="1" arrows="1" fold="1" page="1" pageScale="1" pageWidth="827" pageHeight="1169" math="0" shadow="0">
      <root>
        <mxCell id="WIyWlLk6GJQsqaUBKTNV-0" />
        <mxCell id="WIyWlLk6GJQsqaUBKTNV-1" parent="WIyWlLk6GJQsqaUBKTNV-0" />
        <mxCell id="Nt9OqDD7gc85LJMHLYFE-11" style="edgeStyle=orthogonalEdgeStyle;rounded=0;orthogonalLoop=1;jettySize=auto;html=1;exitX=1;exitY=0.75;exitDx=0;exitDy=0;" parent="WIyWlLk6GJQsqaUBKTNV-1" source="Nt9OqDD7gc85LJMHLYFE-1" target="Nt9OqDD7gc85LJMHLYFE-4" edge="1">
          <mxGeometry relative="1" as="geometry" />
        </mxCell>
        <mxCell id="Nt9OqDD7gc85LJMHLYFE-1" value="modulo de citas" style="rounded=0;whiteSpace=wrap;html=1;fillColor=#FF8000;strokeColor=#FF8000;" parent="WIyWlLk6GJQsqaUBKTNV-1" vertex="1">
          <mxGeometry x="380" y="130" width="160" height="80" as="geometry" />
        </mxCell>
        <mxCell id="Nt9OqDD7gc85LJMHLYFE-33" style="edgeStyle=orthogonalEdgeStyle;rounded=0;orthogonalLoop=1;jettySize=auto;html=1;exitX=0.5;exitY=1;exitDx=0;exitDy=0;entryX=0.5;entryY=0;entryDx=0;entryDy=0;" parent="WIyWlLk6GJQsqaUBKTNV-1" source="Nt9OqDD7gc85LJMHLYFE-4" target="qU-Fjr3SQXxQYiA9aULM-0" edge="1">
          <mxGeometry relative="1" as="geometry">
            <mxPoint x="498" y="450" as="targetPoint" />
          </mxGeometry>
        </mxCell>
        <mxCell id="Nt9OqDD7gc85LJMHLYFE-4" value="agendar cita" style="rounded=0;whiteSpace=wrap;html=1;fillColor=#FF8000;strokeColor=#FF8000;" parent="WIyWlLk6GJQsqaUBKTNV-1" vertex="1">
          <mxGeometry x="450" y="330" width="120" height="60" as="geometry" />
        </mxCell>
        <mxCell id="qU-Fjr3SQXxQYiA9aULM-6" style="edgeStyle=orthogonalEdgeStyle;rounded=0;orthogonalLoop=1;jettySize=auto;html=1;entryX=0;entryY=0.5;entryDx=0;entryDy=0;" edge="1" parent="WIyWlLk6GJQsqaUBKTNV-1" source="Nt9OqDD7gc85LJMHLYFE-43" target="Nt9OqDD7gc85LJMHLYFE-1">
          <mxGeometry relative="1" as="geometry">
            <Array as="points">
              <mxPoint x="230" y="930" />
              <mxPoint x="230" y="230" />
            </Array>
          </mxGeometry>
        </mxCell>
        <mxCell id="Nt9OqDD7gc85LJMHLYFE-43" value="mostrar un anuncio que confirme que la cita se agendo con exito" style="rounded=0;whiteSpace=wrap;html=1;" parent="WIyWlLk6GJQsqaUBKTNV-1" vertex="1">
          <mxGeometry x="437.5" y="900" width="130" height="60" as="geometry" />
        </mxCell>
        <mxCell id="Nt9OqDD7gc85LJMHLYFE-72" style="edgeStyle=orthogonalEdgeStyle;rounded=0;orthogonalLoop=1;jettySize=auto;html=1;entryX=0.5;entryY=0;entryDx=0;entryDy=0;" parent="WIyWlLk6GJQsqaUBKTNV-1" target="Nt9OqDD7gc85LJMHLYFE-43" edge="1">
          <mxGeometry relative="1" as="geometry">
            <mxPoint x="502.5" y="860" as="sourcePoint" />
          </mxGeometry>
        </mxCell>
        <mxCell id="dsyk5HVSyRh5LkBr9ud6-0" value="consultar citas" style="rounded=0;whiteSpace=wrap;html=1;fillColor=#FF8000;strokeColor=#FF8000;" parent="WIyWlLk6GJQsqaUBKTNV-1" vertex="1">
          <mxGeometry x="760" y="330" width="120" height="60" as="geometry" />
        </mxCell>
        <mxCell id="dsyk5HVSyRh5LkBr9ud6-1" style="edgeStyle=orthogonalEdgeStyle;rounded=0;orthogonalLoop=1;jettySize=auto;html=1;entryX=0.5;entryY=0;entryDx=0;entryDy=0;" parent="WIyWlLk6GJQsqaUBKTNV-1" edge="1" source="Nt9OqDD7gc85LJMHLYFE-1">
          <mxGeometry relative="1" as="geometry">
            <mxPoint x="650" y="230" as="sourcePoint" />
            <mxPoint x="825" y="330" as="targetPoint" />
          </mxGeometry>
        </mxCell>
        <mxCell id="dsyk5HVSyRh5LkBr9ud6-2" style="edgeStyle=orthogonalEdgeStyle;rounded=0;orthogonalLoop=1;jettySize=auto;html=1;entryX=0.5;entryY=0;entryDx=0;entryDy=0;" parent="WIyWlLk6GJQsqaUBKTNV-1" target="dsyk5HVSyRh5LkBr9ud6-3" edge="1">
          <mxGeometry relative="1" as="geometry">
            <mxPoint x="808" y="390" as="sourcePoint" />
          </mxGeometry>
        </mxCell>
        <mxCell id="qU-Fjr3SQXxQYiA9aULM-16" value="no" style="edgeStyle=orthogonalEdgeStyle;rounded=0;orthogonalLoop=1;jettySize=auto;html=1;entryX=0.5;entryY=0;entryDx=0;entryDy=0;" edge="1" parent="WIyWlLk6GJQsqaUBKTNV-1" source="dsyk5HVSyRh5LkBr9ud6-3" target="qU-Fjr3SQXxQYiA9aULM-14">
          <mxGeometry relative="1" as="geometry" />
        </mxCell>
        <mxCell id="qU-Fjr3SQXxQYiA9aULM-58" value="si" style="edgeStyle=orthogonalEdgeStyle;rounded=0;orthogonalLoop=1;jettySize=auto;html=1;entryX=0;entryY=0.5;entryDx=0;entryDy=0;" edge="1" parent="WIyWlLk6GJQsqaUBKTNV-1" source="dsyk5HVSyRh5LkBr9ud6-3" target="qU-Fjr3SQXxQYiA9aULM-57">
          <mxGeometry relative="1" as="geometry">
            <Array as="points">
              <mxPoint x="923" y="495" />
              <mxPoint x="923" y="410" />
            </Array>
          </mxGeometry>
        </mxCell>
        <mxCell id="dsyk5HVSyRh5LkBr9ud6-3" value="eres administrador?" style="rhombus;whiteSpace=wrap;html=1;fillColor=#FF8000;strokeColor=#FF8000;" parent="WIyWlLk6GJQsqaUBKTNV-1" vertex="1">
          <mxGeometry x="760" y="455" width="96" height="80" as="geometry" />
        </mxCell>
        <mxCell id="qU-Fjr3SQXxQYiA9aULM-2" style="edgeStyle=orthogonalEdgeStyle;rounded=0;orthogonalLoop=1;jettySize=auto;html=1;entryX=0.5;entryY=0;entryDx=0;entryDy=0;" edge="1" parent="WIyWlLk6GJQsqaUBKTNV-1" source="qU-Fjr3SQXxQYiA9aULM-0" target="qU-Fjr3SQXxQYiA9aULM-1">
          <mxGeometry relative="1" as="geometry" />
        </mxCell>
        <mxCell id="qU-Fjr3SQXxQYiA9aULM-0" value="se despliega los campos requeridos" style="rounded=0;whiteSpace=wrap;html=1;" vertex="1" parent="WIyWlLk6GJQsqaUBKTNV-1">
          <mxGeometry x="447.5" y="455" width="125" height="70" as="geometry" />
        </mxCell>
        <mxCell id="qU-Fjr3SQXxQYiA9aULM-1" value="mostrar disponibilidad" style="rounded=0;whiteSpace=wrap;html=1;" vertex="1" parent="WIyWlLk6GJQsqaUBKTNV-1">
          <mxGeometry x="447.5" y="560" width="125" height="70" as="geometry" />
        </mxCell>
        <mxCell id="qU-Fjr3SQXxQYiA9aULM-5" value="si" style="edgeStyle=orthogonalEdgeStyle;rounded=0;orthogonalLoop=1;jettySize=auto;html=1;entryX=0.5;entryY=0;entryDx=0;entryDy=0;" edge="1" parent="WIyWlLk6GJQsqaUBKTNV-1" source="qU-Fjr3SQXxQYiA9aULM-4" target="Nt9OqDD7gc85LJMHLYFE-43">
          <mxGeometry relative="1" as="geometry" />
        </mxCell>
        <mxCell id="qU-Fjr3SQXxQYiA9aULM-12" value="no" style="edgeStyle=orthogonalEdgeStyle;rounded=0;orthogonalLoop=1;jettySize=auto;html=1;entryX=0;entryY=0.5;entryDx=0;entryDy=0;" edge="1" parent="WIyWlLk6GJQsqaUBKTNV-1" source="qU-Fjr3SQXxQYiA9aULM-4" target="qU-Fjr3SQXxQYiA9aULM-0">
          <mxGeometry relative="1" as="geometry">
            <Array as="points">
              <mxPoint x="410" y="800" />
              <mxPoint x="410" y="490" />
            </Array>
          </mxGeometry>
        </mxCell>
        <mxCell id="qU-Fjr3SQXxQYiA9aULM-4" value="el usuario confirma los datos?" style="rhombus;whiteSpace=wrap;html=1;fillColor=#FF8000;strokeColor=#FF8000;" vertex="1" parent="WIyWlLk6GJQsqaUBKTNV-1">
          <mxGeometry x="454.5" y="760" width="96" height="80" as="geometry" />
        </mxCell>
        <mxCell id="qU-Fjr3SQXxQYiA9aULM-9" style="edgeStyle=orthogonalEdgeStyle;rounded=0;orthogonalLoop=1;jettySize=auto;html=1;entryX=0.498;entryY=0.071;entryDx=0;entryDy=0;entryPerimeter=0;" edge="1" parent="WIyWlLk6GJQsqaUBKTNV-1" source="qU-Fjr3SQXxQYiA9aULM-1" target="qU-Fjr3SQXxQYiA9aULM-4">
          <mxGeometry relative="1" as="geometry" />
        </mxCell>
        <mxCell id="qU-Fjr3SQXxQYiA9aULM-15" value="no" style="edgeStyle=orthogonalEdgeStyle;rounded=0;orthogonalLoop=1;jettySize=auto;html=1;entryX=1;entryY=0.5;entryDx=0;entryDy=0;" edge="1" parent="WIyWlLk6GJQsqaUBKTNV-1" source="qU-Fjr3SQXxQYiA9aULM-14" target="Nt9OqDD7gc85LJMHLYFE-4">
          <mxGeometry relative="1" as="geometry" />
        </mxCell>
        <mxCell id="qU-Fjr3SQXxQYiA9aULM-18" value="si" style="edgeStyle=orthogonalEdgeStyle;rounded=0;orthogonalLoop=1;jettySize=auto;html=1;" edge="1" parent="WIyWlLk6GJQsqaUBKTNV-1" source="qU-Fjr3SQXxQYiA9aULM-14" target="qU-Fjr3SQXxQYiA9aULM-19">
          <mxGeometry relative="1" as="geometry">
            <mxPoint x="808" y="760" as="targetPoint" />
          </mxGeometry>
        </mxCell>
        <mxCell id="qU-Fjr3SQXxQYiA9aULM-14" value="hay citas registradas" style="rhombus;whiteSpace=wrap;html=1;fillColor=#FF8000;strokeColor=#FF8000;" vertex="1" parent="WIyWlLk6GJQsqaUBKTNV-1">
          <mxGeometry x="760" y="580" width="96" height="80" as="geometry" />
        </mxCell>
        <mxCell id="qU-Fjr3SQXxQYiA9aULM-25" style="edgeStyle=orthogonalEdgeStyle;rounded=0;orthogonalLoop=1;jettySize=auto;html=1;entryX=0.5;entryY=0;entryDx=0;entryDy=0;" edge="1" parent="WIyWlLk6GJQsqaUBKTNV-1" source="qU-Fjr3SQXxQYiA9aULM-19" target="qU-Fjr3SQXxQYiA9aULM-21">
          <mxGeometry relative="1" as="geometry" />
        </mxCell>
        <mxCell id="qU-Fjr3SQXxQYiA9aULM-26" style="edgeStyle=orthogonalEdgeStyle;rounded=0;orthogonalLoop=1;jettySize=auto;html=1;entryX=0.5;entryY=0;entryDx=0;entryDy=0;" edge="1" parent="WIyWlLk6GJQsqaUBKTNV-1" source="qU-Fjr3SQXxQYiA9aULM-19" target="qU-Fjr3SQXxQYiA9aULM-22">
          <mxGeometry relative="1" as="geometry" />
        </mxCell>
        <mxCell id="qU-Fjr3SQXxQYiA9aULM-27" style="edgeStyle=orthogonalEdgeStyle;rounded=0;orthogonalLoop=1;jettySize=auto;html=1;entryX=0.5;entryY=0;entryDx=0;entryDy=0;" edge="1" parent="WIyWlLk6GJQsqaUBKTNV-1" source="qU-Fjr3SQXxQYiA9aULM-19" target="qU-Fjr3SQXxQYiA9aULM-23">
          <mxGeometry relative="1" as="geometry" />
        </mxCell>
        <mxCell id="qU-Fjr3SQXxQYiA9aULM-29" style="edgeStyle=orthogonalEdgeStyle;rounded=0;orthogonalLoop=1;jettySize=auto;html=1;entryX=0;entryY=0.5;entryDx=0;entryDy=0;" edge="1" parent="WIyWlLk6GJQsqaUBKTNV-1" source="qU-Fjr3SQXxQYiA9aULM-19" target="qU-Fjr3SQXxQYiA9aULM-28">
          <mxGeometry relative="1" as="geometry" />
        </mxCell>
        <mxCell id="qU-Fjr3SQXxQYiA9aULM-19" value="mostrar citas agendadas" style="rounded=0;whiteSpace=wrap;html=1;" vertex="1" parent="WIyWlLk6GJQsqaUBKTNV-1">
          <mxGeometry x="748" y="710" width="120" height="60" as="geometry" />
        </mxCell>
        <mxCell id="qU-Fjr3SQXxQYiA9aULM-39" style="edgeStyle=orthogonalEdgeStyle;rounded=0;orthogonalLoop=1;jettySize=auto;html=1;entryX=0.5;entryY=0;entryDx=0;entryDy=0;" edge="1" parent="WIyWlLk6GJQsqaUBKTNV-1" source="qU-Fjr3SQXxQYiA9aULM-21" target="qU-Fjr3SQXxQYiA9aULM-37">
          <mxGeometry relative="1" as="geometry" />
        </mxCell>
        <mxCell id="qU-Fjr3SQXxQYiA9aULM-21" value="cancelar" style="rounded=0;whiteSpace=wrap;html=1;" vertex="1" parent="WIyWlLk6GJQsqaUBKTNV-1">
          <mxGeometry x="692" y="830" width="70" height="40" as="geometry" />
        </mxCell>
        <mxCell id="qU-Fjr3SQXxQYiA9aULM-47" style="edgeStyle=orthogonalEdgeStyle;rounded=0;orthogonalLoop=1;jettySize=auto;html=1;entryX=0.5;entryY=0;entryDx=0;entryDy=0;" edge="1" parent="WIyWlLk6GJQsqaUBKTNV-1" source="qU-Fjr3SQXxQYiA9aULM-22" target="qU-Fjr3SQXxQYiA9aULM-45">
          <mxGeometry relative="1" as="geometry" />
        </mxCell>
        <mxCell id="qU-Fjr3SQXxQYiA9aULM-22" value="reprogramar" style="rounded=0;whiteSpace=wrap;html=1;" vertex="1" parent="WIyWlLk6GJQsqaUBKTNV-1">
          <mxGeometry x="771" y="830" width="70" height="40" as="geometry" />
        </mxCell>
        <mxCell id="qU-Fjr3SQXxQYiA9aULM-44" style="edgeStyle=orthogonalEdgeStyle;rounded=0;orthogonalLoop=1;jettySize=auto;html=1;" edge="1" parent="WIyWlLk6GJQsqaUBKTNV-1" source="qU-Fjr3SQXxQYiA9aULM-23" target="qU-Fjr3SQXxQYiA9aULM-43">
          <mxGeometry relative="1" as="geometry" />
        </mxCell>
        <mxCell id="qU-Fjr3SQXxQYiA9aULM-23" value="pagos" style="rounded=0;whiteSpace=wrap;html=1;" vertex="1" parent="WIyWlLk6GJQsqaUBKTNV-1">
          <mxGeometry x="854" y="830" width="70" height="40" as="geometry" />
        </mxCell>
        <mxCell id="qU-Fjr3SQXxQYiA9aULM-31" value="si" style="edgeStyle=orthogonalEdgeStyle;rounded=0;orthogonalLoop=1;jettySize=auto;html=1;entryX=0;entryY=0.5;entryDx=0;entryDy=0;" edge="1" parent="WIyWlLk6GJQsqaUBKTNV-1" source="qU-Fjr3SQXxQYiA9aULM-28" target="qU-Fjr3SQXxQYiA9aULM-30">
          <mxGeometry relative="1" as="geometry" />
        </mxCell>
        <mxCell id="qU-Fjr3SQXxQYiA9aULM-36" value="si" style="edgeStyle=orthogonalEdgeStyle;rounded=0;orthogonalLoop=1;jettySize=auto;html=1;" edge="1" parent="WIyWlLk6GJQsqaUBKTNV-1" source="qU-Fjr3SQXxQYiA9aULM-28">
          <mxGeometry relative="1" as="geometry">
            <mxPoint x="810" y="790" as="targetPoint" />
            <Array as="points">
              <mxPoint x="830" y="780" />
              <mxPoint x="830" y="790" />
            </Array>
          </mxGeometry>
        </mxCell>
        <mxCell id="qU-Fjr3SQXxQYiA9aULM-28" value="es telemedicina?" style="rhombus;whiteSpace=wrap;html=1;fillColor=#FF8000;strokeColor=#FF8000;" vertex="1" parent="WIyWlLk6GJQsqaUBKTNV-1">
          <mxGeometry x="920" y="700" width="96" height="80" as="geometry" />
        </mxCell>
        <mxCell id="qU-Fjr3SQXxQYiA9aULM-33" style="edgeStyle=orthogonalEdgeStyle;rounded=0;orthogonalLoop=1;jettySize=auto;html=1;entryX=0;entryY=0.5;entryDx=0;entryDy=0;" edge="1" parent="WIyWlLk6GJQsqaUBKTNV-1" source="qU-Fjr3SQXxQYiA9aULM-30" target="qU-Fjr3SQXxQYiA9aULM-32">
          <mxGeometry relative="1" as="geometry" />
        </mxCell>
        <mxCell id="qU-Fjr3SQXxQYiA9aULM-30" value="acceder a telemedicina" style="rounded=0;whiteSpace=wrap;html=1;" vertex="1" parent="WIyWlLk6GJQsqaUBKTNV-1">
          <mxGeometry x="1100" y="720" width="70" height="40" as="geometry" />
        </mxCell>
        <mxCell id="qU-Fjr3SQXxQYiA9aULM-32" value="Modulo telemedicina" style="rounded=0;whiteSpace=wrap;html=1;" vertex="1" parent="WIyWlLk6GJQsqaUBKTNV-1">
          <mxGeometry x="1230" y="720" width="70" height="40" as="geometry" />
        </mxCell>
        <mxCell id="qU-Fjr3SQXxQYiA9aULM-34" value="no" style="edgeStyle=orthogonalEdgeStyle;rounded=0;orthogonalLoop=1;jettySize=auto;html=1;entryX=0.671;entryY=-0.013;entryDx=0;entryDy=0;entryPerimeter=0;" edge="1" parent="WIyWlLk6GJQsqaUBKTNV-1" source="qU-Fjr3SQXxQYiA9aULM-28" target="qU-Fjr3SQXxQYiA9aULM-19">
          <mxGeometry relative="1" as="geometry">
            <Array as="points">
              <mxPoint x="948" y="680" />
              <mxPoint x="880" y="680" />
              <mxPoint x="880" y="690" />
              <mxPoint x="829" y="690" />
            </Array>
          </mxGeometry>
        </mxCell>
        <mxCell id="qU-Fjr3SQXxQYiA9aULM-40" value="si" style="edgeStyle=orthogonalEdgeStyle;rounded=0;orthogonalLoop=1;jettySize=auto;html=1;entryX=0.5;entryY=0;entryDx=0;entryDy=0;" edge="1" parent="WIyWlLk6GJQsqaUBKTNV-1" source="qU-Fjr3SQXxQYiA9aULM-37" target="qU-Fjr3SQXxQYiA9aULM-41">
          <mxGeometry relative="1" as="geometry">
            <mxPoint x="723" y="1030" as="targetPoint" />
          </mxGeometry>
        </mxCell>
        <mxCell id="qU-Fjr3SQXxQYiA9aULM-42" value="no" style="edgeStyle=orthogonalEdgeStyle;rounded=0;orthogonalLoop=1;jettySize=auto;html=1;entryX=0;entryY=0.5;entryDx=0;entryDy=0;" edge="1" parent="WIyWlLk6GJQsqaUBKTNV-1" source="qU-Fjr3SQXxQYiA9aULM-37" target="qU-Fjr3SQXxQYiA9aULM-19">
          <mxGeometry relative="1" as="geometry">
            <Array as="points">
              <mxPoint x="650" y="950" />
              <mxPoint x="650" y="740" />
            </Array>
          </mxGeometry>
        </mxCell>
        <mxCell id="qU-Fjr3SQXxQYiA9aULM-37" value="esta seguro?" style="rhombus;whiteSpace=wrap;html=1;fillColor=#FF8000;strokeColor=#FF8000;" vertex="1" parent="WIyWlLk6GJQsqaUBKTNV-1">
          <mxGeometry x="680.5" y="960" width="85" height="70" as="geometry" />
        </mxCell>
        <mxCell id="qU-Fjr3SQXxQYiA9aULM-55" style="edgeStyle=orthogonalEdgeStyle;rounded=0;orthogonalLoop=1;jettySize=auto;html=1;" edge="1" parent="WIyWlLk6GJQsqaUBKTNV-1">
          <mxGeometry relative="1" as="geometry">
            <mxPoint x="675.5" y="1090.0769230769233" as="sourcePoint" />
            <mxPoint x="380" y="180" as="targetPoint" />
            <Array as="points">
              <mxPoint x="130" y="1090" />
              <mxPoint x="130" y="240" />
            </Array>
          </mxGeometry>
        </mxCell>
        <mxCell id="qU-Fjr3SQXxQYiA9aULM-41" value="mostrar anuncio de cancelacion exitosa" style="rounded=0;whiteSpace=wrap;html=1;" vertex="1" parent="WIyWlLk6GJQsqaUBKTNV-1">
          <mxGeometry x="675.5" y="1050" width="90" height="60" as="geometry" />
        </mxCell>
        <mxCell id="qU-Fjr3SQXxQYiA9aULM-43" value="modulo facturacion" style="rounded=0;whiteSpace=wrap;html=1;" vertex="1" parent="WIyWlLk6GJQsqaUBKTNV-1">
          <mxGeometry x="1030" y="890" width="70" height="40" as="geometry" />
        </mxCell>
        <mxCell id="qU-Fjr3SQXxQYiA9aULM-49" value="si" style="edgeStyle=orthogonalEdgeStyle;rounded=0;orthogonalLoop=1;jettySize=auto;html=1;entryX=1;entryY=0.5;entryDx=0;entryDy=0;exitX=0.5;exitY=1;exitDx=0;exitDy=0;" edge="1" parent="WIyWlLk6GJQsqaUBKTNV-1" source="qU-Fjr3SQXxQYiA9aULM-45" target="qU-Fjr3SQXxQYiA9aULM-1">
          <mxGeometry relative="1" as="geometry">
            <mxPoint x="630.0000000000002" y="945.6896551724138" as="targetPoint" />
            <mxPoint x="828" y="970" as="sourcePoint" />
            <Array as="points">
              <mxPoint x="828" y="1000" />
              <mxPoint x="828" y="1120" />
              <mxPoint x="600" y="1120" />
              <mxPoint x="600" y="595" />
            </Array>
          </mxGeometry>
        </mxCell>
        <mxCell id="qU-Fjr3SQXxQYiA9aULM-54" value="no" style="edgeStyle=orthogonalEdgeStyle;rounded=0;orthogonalLoop=1;jettySize=auto;html=1;exitX=0;exitY=0.5;exitDx=0;exitDy=0;" edge="1" parent="WIyWlLk6GJQsqaUBKTNV-1" source="qU-Fjr3SQXxQYiA9aULM-45">
          <mxGeometry relative="1" as="geometry">
            <mxPoint x="650" y="920" as="targetPoint" />
          </mxGeometry>
        </mxCell>
        <mxCell id="qU-Fjr3SQXxQYiA9aULM-45" value="esta seguro?" style="rhombus;whiteSpace=wrap;html=1;fillColor=#FF8000;strokeColor=#FF8000;" vertex="1" parent="WIyWlLk6GJQsqaUBKTNV-1">
          <mxGeometry x="762" y="890" width="80" height="70" as="geometry" />
        </mxCell>
        <mxCell id="qU-Fjr3SQXxQYiA9aULM-63" style="edgeStyle=orthogonalEdgeStyle;rounded=0;orthogonalLoop=1;jettySize=auto;html=1;" edge="1" parent="WIyWlLk6GJQsqaUBKTNV-1" source="qU-Fjr3SQXxQYiA9aULM-57" target="qU-Fjr3SQXxQYiA9aULM-62">
          <mxGeometry relative="1" as="geometry" />
        </mxCell>
        <mxCell id="qU-Fjr3SQXxQYiA9aULM-57" value="modificar horario" style="rounded=0;whiteSpace=wrap;html=1;" vertex="1" parent="WIyWlLk6GJQsqaUBKTNV-1">
          <mxGeometry x="1030" y="370" width="120" height="60" as="geometry" />
        </mxCell>
        <mxCell id="qU-Fjr3SQXxQYiA9aULM-59" value="si" style="edgeStyle=orthogonalEdgeStyle;rounded=0;orthogonalLoop=1;jettySize=auto;html=1;" edge="1" parent="WIyWlLk6GJQsqaUBKTNV-1" source="dsyk5HVSyRh5LkBr9ud6-3">
          <mxGeometry x="-0.2549" relative="1" as="geometry">
            <mxPoint x="780" y="710" as="targetPoint" />
            <Array as="points">
              <mxPoint x="750" y="495" />
              <mxPoint x="750" y="700" />
              <mxPoint x="780" y="700" />
            </Array>
            <mxPoint as="offset" />
          </mxGeometry>
        </mxCell>
        <mxCell id="qU-Fjr3SQXxQYiA9aULM-65" value="si" style="edgeStyle=orthogonalEdgeStyle;rounded=0;orthogonalLoop=1;jettySize=auto;html=1;exitX=1;exitY=0.5;exitDx=0;exitDy=0;" edge="1" parent="WIyWlLk6GJQsqaUBKTNV-1" source="qU-Fjr3SQXxQYiA9aULM-62" target="qU-Fjr3SQXxQYiA9aULM-64">
          <mxGeometry relative="1" as="geometry" />
        </mxCell>
        <mxCell id="qU-Fjr3SQXxQYiA9aULM-66" value="no" style="edgeStyle=orthogonalEdgeStyle;rounded=0;orthogonalLoop=1;jettySize=auto;html=1;entryX=0.5;entryY=0;entryDx=0;entryDy=0;" edge="1" parent="WIyWlLk6GJQsqaUBKTNV-1" source="qU-Fjr3SQXxQYiA9aULM-62" target="qU-Fjr3SQXxQYiA9aULM-57">
          <mxGeometry relative="1" as="geometry">
            <Array as="points">
              <mxPoint x="1233" y="350" />
              <mxPoint x="1090" y="350" />
            </Array>
          </mxGeometry>
        </mxCell>
        <mxCell id="qU-Fjr3SQXxQYiA9aULM-62" value="esta seguro?" style="rhombus;whiteSpace=wrap;html=1;fillColor=#FF8000;strokeColor=#FF8000;" vertex="1" parent="WIyWlLk6GJQsqaUBKTNV-1">
          <mxGeometry x="1190" y="365" width="85" height="70" as="geometry" />
        </mxCell>
        <mxCell id="qU-Fjr3SQXxQYiA9aULM-67" style="edgeStyle=orthogonalEdgeStyle;rounded=0;orthogonalLoop=1;jettySize=auto;html=1;" edge="1" parent="WIyWlLk6GJQsqaUBKTNV-1">
          <mxGeometry relative="1" as="geometry">
            <mxPoint x="1395.0156410256411" y="390" as="sourcePoint" />
            <mxPoint x="874.99" y="350.0256410256411" as="targetPoint" />
            <Array as="points">
              <mxPoint x="1395" y="280" />
              <mxPoint x="990" y="280" />
              <mxPoint x="990" y="350" />
            </Array>
          </mxGeometry>
        </mxCell>
        <mxCell id="qU-Fjr3SQXxQYiA9aULM-64" value="mostrar anuncion de modificacion exitosa" style="rounded=0;whiteSpace=wrap;html=1;" vertex="1" parent="WIyWlLk6GJQsqaUBKTNV-1">
          <mxGeometry x="1340" y="370" width="120" height="60" as="geometry" />
        </mxCell>
      </root>
    </mxGraphModel>
  </diagram>
</mxfile>
